#!OML:ASF X:\für Bonn\!DataBase\2005_08_10_Bjorn_Final\c3d\bjorn.ASF
:FULLY-SPECIFIED
:DEGREES
124
root -0.0749102 15.4112 4.82201 -172.935 -2.5151 177.115
lowerback 31.46 1.71031 4.11992
upperback 13.2365 -0.483601 -0.236044
thorax -2.09708 -1.58765 -2.42097
lowerneck -26.2107 -0.314165 2.91725
upperneck -1.94491 -2.53335 -2.16904
head 3.28292 -1.97677 -1.43054
rclavicle -8.34896e-015 -1.03368e-014
rhumerus 79.3463 -9.26484 -41.9082
rradius 19.713
rwrist 22.7626
rhand -12.376 8.07433
rfingers 7.12502
rthumb 13.6947 -21.4551
lclavicle -8.34896e-015 -1.03368e-014
lhumerus 92.2219 1.32694 67.191
lradius 8.73604
lwrist -50.5352
lhand -22.6824 -7.33126
lfingers 7.12502
lthumb 3.74979 22.6155
rfemur -57.9589 -9.45624 14.2735
rtibia 87.5888
rfoot -34.081 8.66239
rtoes -22.2852
lfemur -57.1943 0.0438276 -23.7165
ltibia 88.7009
lfoot -28.0595 -1.55228
ltoes -24.6857
125
root -0.0750118 15.6276 4.79266 -173.012 -2.50775 177.13
lowerback 30.8816 1.69898 4.06188
upperback 13.1113 -0.43687 -0.247966
thorax -1.98805 -1.5308 -2.41972
lowerneck -26.1971 -0.324224 2.93514
upperneck -1.71572 -2.5138 -2.22245
head 3.35366 -1.95463 -1.45014
rclavicle 3.97569e-015 2.98177e-014
rhumerus 79.5348 -9.25871 -42.5083
rradius 19.5673
rwrist 23.6221
rhand -12.2861 8.26145
rfingers 7.12502
rthumb 13.7813 -21.2621
lclavicle 3.97569e-015 2.98177e-014
lhumerus 92.3492 1.40777 67.1031
lradius 8.6084
lwrist -50.5998
lhand -22.6371 -7.25042
lfingers 7.12502
lthumb 3.79358 22.6956
rfemur -56.3278 -9.11633 14.2732
rtibia 85.3082
rfoot -33.6373 8.46514
rtoes -21.3308
lfemur -55.5058 -0.0682101 -23.6376
ltibia 86.2657
lfoot -27.99 -1.50516
ltoes -24.5815
126
root -0.0732068 15.8423 4.76069 -173.05 -2.5262 177.141
lowerback 30.2482 1.67301 3.97875
upperback 12.9641 -0.404623 -0.254014
thorax -1.87929 -1.47786 -2.39263
lowerneck -26.2167 -0.337381 2.91526
upperneck -1.41623 -2.48347 -2.23086
head 3.45225 -1.92128 -1.44939
rclavicle 6.36111e-015 -7.15625e-015
rhumerus 79.6882 -9.19848 -42.9211
rradius 19.4347
rwrist 24.3604
rhand -12.3 8.32052
rfingers 7.12502
rthumb 13.7679 -21.2039
lclavicle 6.36111e-015 -7.15625e-015
lhumerus 92.3758 1.48987 67.0081
lradius 8.55048
lwrist -50.4572
lhand -22.5572 -7.20996
lfingers 7.12502
lthumb 3.87072 22.7346
rfemur -54.7284 -8.82684 14.2845
rtibia 83.0056
rfoot -33.1683 8.27786
rtoes -20.5131
lfemur -53.8519 -0.17581 -23.5592
ltibia 83.8044
lfoot -27.9109 -1.51497
ltoes -24.4376
127
root -0.0721915 16.0549 4.72643 -173.071 -2.54857 177.171
lowerback 29.5608 1.6475 3.92751
upperback 12.7854 -0.348467 -0.260121
thorax -1.77663 -1.4064 -2.39052
lowerneck -26.0873 -0.382799 2.89884
upperneck -1.14074 -2.48167 -2.24452
head 3.52273 -1.89755 -1.45116
rclavicle 3.57812e-015 -1.03368e-014
rhumerus 79.6963 -9.11456 -43.0707
rradius 19.3228
rwrist 24.772
rhand -12.3222 8.27457
rfingers 7.12502
rthumb 13.7465 -21.2513
lclavicle 3.57812e-015 -1.03368e-014
lhumerus 92.3032 1.45605 66.9169
lradius 8.59023
lwrist -50.0503
lhand -22.3295 -7.21978
lfingers 7.12502
lthumb 4.09058 22.7207
rfemur -53.1422 -8.56679 14.3139
rtibia 80.6851
rfoot -32.6428 8.13158
rtoes -19.741
lfemur -52.2041 -0.282373 -23.4661
ltibia 81.3103
lfoot -27.7936 -1.52338
ltoes -24.3662
128
root -0.071148 16.2631 4.68903 -173.061 -2.54951 177.205
lowerback 28.7215 1.63755 3.84809
upperback 12.6572 -0.294109 -0.253715
thorax -1.54493 -1.33726 -2.35975
lowerneck -25.9635 -0.401492 2.90866
upperneck -0.89838 -2.45701 -2.29434
head 3.58342 -1.86801 -1.46626
rclavicle 1.23246e-014 -3.97569e-016
rhumerus 79.7478 -9.01258 -43.1743
rradius 19.2359
rwrist 24.9449
rhand -12.2425 8.18732
rfingers 7.12502
rthumb 13.8233 -21.3334
lclavicle 1.23246e-014 -3.97569e-016
lhumerus 92.2194 1.45149 66.8301
lradius 8.68466
lwrist -49.4442
lhand -22.0969 -7.24842
lfingers 7.12502
lthumb 4.31523 22.6876
rfemur -51.6026 -8.3194 14.3534
rtibia 78.3609
rfoot -32.0732 7.9738
rtoes -19.1162
lfemur -50.6011 -0.338483 -23.3802
ltibia 78.8054
lfoot -27.577 -1.55219
ltoes -24.3197
129
root -0.0698299 16.4692 4.64817 -173.076 -2.54404 177.241
lowerback 27.8449 1.62815 3.8037
upperback 12.5423 -0.235772 -0.290785
thorax -1.27474 -1.26323 -2.39727
lowerneck -25.8329 -0.418689 2.9928
upperneck -0.56326 -2.44036 -2.30605
head 3.672 -1.83325 -1.48204
rclavicle -3.49861e-014 5.56597e-015
rhumerus 79.8381 -8.89648 -43.7642
rradius 19.0615
rwrist 25.4195
rhand -12.0811 8.12644
rfingers 7.12502
rthumb 13.9788 -21.3836
lclavicle -3.49861e-014 5.56597e-015
lhumerus 92.1604 1.40625 66.6798
lradius 8.69549
lwrist -48.8366
lhand -21.9608 -7.33372
lfingers 7.12502
lthumb 4.44659 22.5996
rfemur -50.0228 -8.10365 14.3894
rtibia 76.0184
rfoot -31.4503 7.87436
rtoes -18.4586
lfemur -48.9382 -0.387046 -23.2882
ltibia 76.2682
lfoot -27.3117 -1.64284
ltoes -24.2216
130
root -0.0679727 16.6694 4.60519 -173.098 -2.56923 177.256
lowerback 26.9734 1.6114 3.71703
upperback 12.3988 -0.186969 -0.295344
thorax -1.03647 -1.19493 -2.37037
lowerneck -25.6395 -0.451803 3.03494
upperneck -0.193231 -2.41922 -2.35678
head 3.76342 -1.79521 -1.5027
rclavicle -2.38542e-015 -1.03368e-014
rhumerus 79.8805 -8.70573 -44.2363
rradius 18.907
rwrist 25.763
rhand -11.8877 8.05721
rfingers 7.12502
rthumb 14.1652 -21.4399
lclavicle -2.38542e-015 -1.03368e-014
lhumerus 92.0504 1.36753 66.5765
lradius 8.61884
lwrist -48.3809
lhand -21.942 -7.35765
lfingers 7.12502
lthumb 4.46475 22.5753
rfemur -48.4364 -7.92805 14.4046
rtibia 73.6799
rfoot -30.8277 7.72827
rtoes -18.1765
lfemur -47.2734 -0.452321 -23.2254
ltibia 73.7256
lfoot -27.0072 -1.6465
ltoes -24.4405
